<svg viewBox="0 0 22 16" xmlns="http://www.w3.org/2000/svg" xmlns:xlink="http://www.w3.org/1999/xlink" width="22.000000" height="16.000000" fill="none" customFrame="#000000">
	<path id="Icon Action" d="M20.1667 0.857143C20.1667 0.382143 19.758 0 19.25 0C18.742 0 18.3333 0.382143 18.3333 0.857143L18.3333 1.14286L1.22222 1.14286C0.546181 1.14286 0 1.65357 0 2.28571L0 6.28571C0 6.91786 0.546181 7.42857 1.22222 7.42857L1.60417 7.42857C2.39861 7.42857 2.98299 8.12857 2.78819 8.85L1.26042 14.5786C1.16875 14.9214 1.25278 15.2821 1.48194 15.5607C1.71111 15.8393 2.06632 16 2.44444 16L6.11111 16C6.67257 16 7.16146 15.6429 7.29514 15.1357L8.28819 11.4286L12.2795 11.4286C13.1847 11.4286 13.9906 10.8964 14.2924 10.1L15.3122 7.42857L16.5 7.42857C16.8247 7.42857 17.134 7.30714 17.3632 7.09286L18.2302 6.28571L20.7778 6.28571C21.4538 6.28571 22 5.775 22 5.14286L22 2.28571C22 1.65357 21.4538 1.14286 20.7778 1.14286L20.1667 1.14286L20.1667 0.857143ZM12.2757 9.71429L8.74653 9.71429L9.35764 7.42857L13.3681 7.42857L12.566 9.525C12.524 9.63929 12.4056 9.71429 12.2795 9.71429L12.2757 9.71429ZM3.05556 3.42857L17.7222 3.42857C18.0583 3.42857 18.3333 3.68571 18.3333 4C18.3333 4.31429 18.0583 4.57143 17.7222 4.57143L3.05556 4.57143C2.71944 4.57143 2.44444 4.31429 2.44444 4C2.44444 3.68571 2.71944 3.42857 3.05556 3.42857Z" fill="rgb(235.875,51.1063,66.9198)" fill-rule="nonzero" />
</svg>
