<svg viewBox="0 0 31 31" xmlns="http://www.w3.org/2000/svg" xmlns:xlink="http://www.w3.org/1999/xlink" width="31.000000" height="31.000000" fill="none" customFrame="#000000">
	<g id="Icon Affordable Plans">
		<path id="Vector" d="M24.8893 22.0814C24.8807 22.0659 24.8689 22.0532 24.8594 22.0385L24.8602 22.0381L14.2664 3.02059L14.2609 3.02385C14.1731 2.87958 14.0457 2.76576 13.8951 2.69696L13.9101 2.68798L9.57473 0.0936193L9.57473 0.111576C9.46503 0.046698 9.34233 0.00899786 9.21623 0.00142251C9.09013 -0.00615284 8.96405 0.0166021 8.84785 0.0679084L8.84312 0.0593381L8.76201 0.107903L8.75689 0.110352L8.75216 0.113617L0.411088 5.10481C0.288933 5.17816 0.187146 5.28299 0.115601 5.40912C0.0440565 5.53526 0.0051845 5.67842 0.00275633 5.82472L0 5.82308L0 11.0118L0.00826898 11.0069C-0.0102379 11.1812 0.0200817 11.3628 0.111041 11.5264C0.116554 11.5362 0.123641 11.5436 0.129547 11.553L10.6887 30.5081C10.6989 30.5305 10.706 30.5538 10.7182 30.5758C10.8244 30.7656 10.9972 30.9056 11.2006 30.9666C11.404 31.0275 11.6222 31.0046 11.8097 30.9027L11.8117 30.906L24.5952 23.2568L24.5897 23.2466C24.7785 23.1332 24.916 22.9468 24.9722 22.7283C25.0284 22.5098 24.9986 22.2771 24.8893 22.0814ZM7.13104 7.0768C6.87036 7.2328 6.57089 7.30517 6.27052 7.28476C5.97015 7.26435 5.68237 7.15209 5.44356 6.96215C5.20475 6.77222 5.02566 6.51316 4.92892 6.21772C4.83217 5.92229 4.82214 5.60376 4.90007 5.30241C4.978 5.00106 5.14041 4.73044 5.36675 4.52476C5.59309 4.31908 5.87319 4.18759 6.17164 4.14691C6.47008 4.10623 6.77347 4.1582 7.04342 4.29623C7.31337 4.43426 7.53776 4.65217 7.68822 4.92238C7.78815 5.10176 7.85301 5.29977 7.87909 5.50513C7.90518 5.71048 7.89197 5.91915 7.84023 6.11922C7.78849 6.31928 7.69923 6.50682 7.57754 6.67113C7.45586 6.83543 7.30414 6.97328 7.13104 7.0768Z" fill="rgb(235.875,51.1063,66.9198)" fill-rule="nonzero" />
		<circle id="Ellipse 6" cx="23" cy="22" r="8" fill="rgb(16,17,16)" />
		<path id="Vector" d="M26.53 19.2675L22.2809 23.7939L20.461 21.8553C20.3005 21.6843 20.0828 21.5883 19.8559 21.5883C19.6289 21.5883 19.4112 21.6843 19.2507 21.8553C19.0902 22.0263 19 22.2582 19 22.5C19 22.7418 19.0902 22.9737 19.2507 23.1447L21.68 25.7325C22.0148 26.0892 22.5556 26.0892 22.8903 25.7325L27.749 20.5568C27.8285 20.4722 27.8917 20.3717 27.9347 20.2611C27.9778 20.1505 28 20.0319 28 19.9121C28 19.7924 27.9778 19.6738 27.9347 19.5632C27.8917 19.4526 27.8285 19.3521 27.749 19.2675C27.4056 18.9108 26.8648 18.9108 26.53 19.2675Z" fill="rgb(235.875,51.1063,66.9198)" fill-rule="nonzero" />
		<path id="Vector" d="M22.6238 23.4287L22.2809 23.7939L21.938 23.4287L20.461 21.8553C20.3005 21.6843 20.0828 21.5883 19.8559 21.5883C19.6289 21.5883 19.4112 21.6843 19.2507 21.8553C19.0902 22.0263 19 22.2582 19 22.5C19 22.7418 19.0902 22.9737 19.2507 23.1447L21.68 25.7325C22.0148 26.0892 22.5556 26.0892 22.8903 25.7325L27.749 20.5568C27.8285 20.4722 27.8917 20.3717 27.9347 20.2611C27.9778 20.1505 28 20.0319 28 19.9121C28 19.7924 27.9778 19.6738 27.9347 19.5632C27.8917 19.4526 27.8285 19.3521 27.749 19.2675C27.4056 18.9108 26.8648 18.9108 26.53 19.2675L22.6238 23.4287ZM22.2809 23.0634L20.8256 21.5131C20.6841 21.3624 20.5263 21.2517 20.3523 21.1812C20.1994 21.1193 20.0339 21.0883 19.8559 21.0883C19.6778 21.0883 19.5123 21.1193 19.3594 21.1812C19.1854 21.2517 19.0276 21.3624 18.8861 21.5131C18.7669 21.6401 18.6753 21.7789 18.6113 21.9293C18.5371 22.1038 18.5 22.294 18.5 22.5C18.5 22.706 18.5371 22.8962 18.6113 23.0707C18.6753 23.2211 18.7669 23.3599 18.8861 23.4869L21.3154 26.0747C21.4578 26.2264 21.6166 26.3375 21.7917 26.4081C21.9438 26.4694 22.1083 26.5 22.2852 26.5C22.462 26.5 22.6265 26.4694 22.7787 26.4081C22.9538 26.3375 23.1125 26.2264 23.2549 26.0747L28.1135 20.899C28.162 20.8475 28.2062 20.7929 28.2459 20.7353C28.3082 20.6451 28.3598 20.5475 28.4007 20.4426C28.431 20.3647 28.4543 20.2855 28.4708 20.2049C28.4903 20.1093 28.5 20.0117 28.5 19.9121C28.5 19.8126 28.4903 19.715 28.4708 19.6194C28.4543 19.5388 28.431 19.4596 28.4007 19.3817C28.3607 19.279 28.3103 19.1833 28.2497 19.0946C28.2089 19.0348 28.1634 18.9783 28.1132 18.9249C27.96 18.7658 27.7901 18.6514 27.6035 18.5816C27.4579 18.5272 27.3022 18.5 27.1363 18.5C26.958 18.5 26.7922 18.531 26.6391 18.5931C26.4649 18.6637 26.3071 18.7744 26.1655 18.9253L22.2809 23.0634Z" fill="rgb(235.875,51.1063,66.9198)" fill-rule="evenodd" />
	</g>
</svg>
