<svg viewBox="0 0 17 30" xmlns="http://www.w3.org/2000/svg" xmlns:xlink="http://www.w3.org/1999/xlink" width="17.000000" height="30.000000" fill="none" customFrame="#000000">
	<path id="Icon Arrow" d="M4.16005 0.734624L16.2828 13.2243C16.5101 13.4565 16.6904 13.7328 16.8135 14.0372C16.9366 14.3416 17 14.6681 17 14.9979C17 15.3276 16.9366 15.6541 16.8135 15.9585C16.6904 16.2629 16.5101 16.5392 16.2828 16.7714L4.16005 29.2611C3.93465 29.4952 3.6665 29.6811 3.37104 29.8079C3.07559 29.9347 2.75868 30 2.43861 30C2.11854 30 1.80164 29.9347 1.50619 29.8079C1.21073 29.6811 0.942573 29.4952 0.717179 29.2611C0.489929 29.0289 0.309557 28.7526 0.186466 28.4482C0.0633742 28.1438 0 27.8173 0 27.4876C0 27.1578 0.0633742 26.8313 0.186466 26.5269C0.309557 26.2225 0.489929 25.9463 0.717179 25.714L11.1428 14.9979L0.717179 4.2817C0.260627 3.81133 0.0041389 3.17337 0.0041389 2.50816C0.0041389 2.17879 0.0671069 1.85263 0.189451 1.54833C0.311795 1.24403 0.491117 0.967528 0.717179 0.734624C1.17373 0.264252 1.79295 -2.21862e-15 2.43861 0C2.75831 -2.21862e-15 3.07488 0.0648763 3.37025 0.190923C3.66561 0.31697 3.93399 0.501719 4.16005 0.734624Z" fill="rgb(255,255,255)" fill-rule="evenodd" transform="matrix(-1,-8.74228e-08,8.74228e-08,-1,17,30)" />
</svg>
