<svg viewBox="0 0 18 20" xmlns="http://www.w3.org/2000/svg" xmlns:xlink="http://www.w3.org/1999/xlink" width="18.000000" height="20.000000" fill="none" customFrame="#000000">
	<path id="Icon Comedy" d="M9 15C10 15 10.871 14.675 11.613 14.025C12.355 13.375 12.8007 12.5667 12.95 11.6C12.9833 11.4333 12.946 11.2917 12.838 11.175C12.73 11.0583 12.584 11 12.4 11L5.6 11C5.43333 11 5.29167 11.0583 5.175 11.175C5.05833 11.2917 5.01667 11.4333 5.05 11.6C5.2 12.5667 5.64567 13.375 6.387 14.025C7.12833 14.675 7.99933 15 9 15ZM9 20C7.75 20 6.57933 19.7627 5.488 19.288C4.39667 18.8133 3.44667 18.1717 2.638 17.363C1.82933 16.5543 1.18767 15.6043 0.713 14.513C0.238333 13.4217 0.000666667 12.2507 0 11L0 2C0 1.45 0.196 0.979333 0.588 0.588C0.98 0.196667 1.45067 0.000666667 2 0L16 0C16.55 0 17.021 0.196 17.413 0.588C17.805 0.98 18.0007 1.45067 18 2L18 11C18 12.25 17.7627 13.421 17.288 14.513C16.8133 15.605 16.1717 16.555 15.363 17.363C14.5543 18.171 13.6043 18.8127 12.513 19.288C11.4217 19.7633 10.2507 20.0007 9 20ZM9 18C10.9333 18 12.5833 17.3167 13.95 15.95C15.3167 14.5833 16 12.9333 16 11L16 2L2 2L2 11C2 12.9333 2.68333 14.5833 4.05 15.95C5.41667 17.3167 7.06667 18 9 18ZM9 18C7.06667 18 5.41667 17.3167 4.05 15.95C2.68333 14.5833 2 12.9333 2 11L2 2L16 2L16 11C16 12.9333 15.3167 14.5833 13.95 15.95C12.5833 17.3167 10.9333 18 9 18ZM6 5C5.55 5 5.15433 5.13333 4.813 5.4C4.47167 5.66667 4.234 6 4.1 6.4C4.05 6.55 4.075 6.68767 4.175 6.813C4.275 6.93833 4.41667 7.00067 4.6 7L7.4 7C7.56667 7 7.7 6.93767 7.8 6.813C7.9 6.68833 7.93333 6.55067 7.9 6.4C7.76667 6 7.52933 5.66667 7.188 5.4C6.84667 5.13333 6.45067 5 6 5ZM12 5C11.55 5 11.1543 5.13333 10.813 5.4C10.4717 5.66667 10.234 6 10.1 6.4C10.05 6.55 10.075 6.68767 10.175 6.813C10.275 6.93833 10.4167 7.00067 10.6 7L13.4 7C13.5667 7 13.7 6.93767 13.8 6.813C13.9 6.68833 13.9333 6.55067 13.9 6.4C13.7667 6 13.5293 5.66667 13.188 5.4C12.8467 5.13333 12.4507 5 12 5Z" fill="rgb(235.875,51.1063,66.9198)" fill-rule="nonzero" />
</svg>
