<svg viewBox="0 0 31 31" xmlns="http://www.w3.org/2000/svg" xmlns:xlink="http://www.w3.org/1999/xlink" width="31.000000" height="31.000000" fill="none" customFrame="#000000">
	<path id="Icon Customer Support" d="M15.4712 3.32248C14.5456 3.30576 13.6257 3.47174 12.7643 3.81092C11.9029 4.1501 11.1168 4.65581 10.451 5.29912C9.78527 5.94243 9.25291 6.71071 8.88443 7.55998C8.51594 8.40926 8.31856 9.32286 8.30357 10.2485L8.30357 19.929C8.30357 20.5162 8.07028 21.0794 7.65502 21.4947C7.23976 21.9099 6.67655 22.1432 6.08929 22.1432L3.32143 22.1432C2.44053 22.1432 1.59571 21.7933 0.972824 21.1704C0.349935 20.5475 7.37505e-16 19.7028 2.45835e-16 18.8219L0 14.3935C2.76564e-16 13.5126 0.349935 12.6678 0.972824 12.045C1.59571 11.4221 2.44053 11.0722 3.32143 11.0722L4.98214 11.0722L4.98214 10.2086C5.00235 8.84778 5.29044 7.50423 5.82998 6.25472C6.36951 5.0052 7.14992 3.87421 8.12662 2.92633C9.10332 1.97845 10.2572 1.23225 11.5223 0.730346C12.7875 0.228443 14.1391 -0.0193305 15.5 0.00117644C16.8609 -0.0193305 18.2125 0.228443 19.4777 0.730346C20.7428 1.23225 21.8967 1.97845 22.8734 2.92633C23.8501 3.87421 24.6305 5.0052 25.17 6.25472C25.7096 7.50423 25.9977 8.84778 26.0179 10.2086L26.0179 11.0722L27.6786 11.0722C28.5595 11.0722 29.4043 11.4221 30.0272 12.045C30.6501 12.6678 31 13.5126 31 14.3935L31 18.8219C31 19.7028 30.6501 20.5475 30.0272 21.1704C29.4043 21.7933 28.5595 22.1432 27.6786 22.1432L26.0179 22.1432L26.0179 23.2503C26.0181 24.7466 25.4675 26.1905 24.4709 27.3067C23.4744 28.4229 22.1018 29.133 20.615 29.3017C20.3263 29.8172 19.9052 30.2463 19.3953 30.5449C18.8855 30.8434 18.3051 31.0005 17.7143 31L14.3929 31C13.512 31 12.6671 30.6501 12.0443 30.0272C11.4214 29.4043 11.0714 28.5596 11.0714 27.6787C11.0714 26.7978 11.4214 25.953 12.0443 25.3302C12.6671 24.7073 13.512 24.3574 14.3929 24.3574L17.7143 24.3574C18.9144 24.3574 19.9662 24.9929 20.5486 25.9472C21.1589 25.8069 21.7036 25.4638 22.0937 24.974C22.4838 24.4841 22.6963 23.8765 22.6964 23.2503L22.6964 10.2463C22.6812 9.31588 22.4818 8.39771 22.1096 7.54486C21.7373 6.692 21.1998 5.92138 20.5279 5.27755C19.856 4.63371 19.0632 4.12943 18.1953 3.79386C17.3273 3.45828 16.4015 3.29807 15.4712 3.32248Z" fill="rgb(235.875,51.1063,66.9198)" fill-rule="evenodd" />
</svg>
