<svg viewBox="0 0 20 15" xmlns="http://www.w3.org/2000/svg" xmlns:xlink="http://www.w3.org/1999/xlink" width="20.000004" height="15.000000" fill="none" customFrame="#000000">
	<path id="Icon Documentaries" d="M1.79556 0L3.46222 3.21429L6.79556 3.21429L5.12889 0L7.35111 0L9.01778 3.21429L12.3511 3.21429L10.6844 0L12.9067 0L14.5733 3.21429L17.9067 3.21429L16.24 0L18.2056 0C18.7167 0 19.1437 0.165357 19.4867 0.496071C19.8296 0.826785 20.0007 1.23857 20 1.73143L20 13.2696C20 13.7625 19.8289 14.1743 19.4867 14.505C19.1444 14.8357 18.7174 15.0007 18.2056 15L1.79444 15C1.28333 15 0.856667 14.835 0.514444 14.505C0.172222 14.175 0.000740741 13.7629 0 13.2686L0 1.73143C0 1.23786 0.171482 0.826071 0.514444 0.496071C0.857407 0.166071 1.28407 0.000714286 1.79444 0" fill="rgb(235.875,51.1063,66.9198)" fill-rule="nonzero" />
</svg>
