<svg viewBox="0 0 24.5072 24.425" xmlns="http://www.w3.org/2000/svg" xmlns:xlink="http://www.w3.org/1999/xlink" width="24.507217" height="24.425049" fill="none" customFrame="#000000">
	<g id="Icon Drama">
		<path id="Vector" d="M9.34503 7.35522C8.08214 7.47003 6.58965 8.04407 4.63792 9.07734C0.619666 11.3735 -0.758022 13.5548 0.390051 15.5065C5.55638 24.4615 11.2968 25.1504 13.2485 24.0023C14.2817 23.4283 15.4298 21.5913 15.4298 18.6063" fill="rgb(235.875,51.1063,66.9198)" fill-rule="nonzero" />
		<path id="Vector" d="M9.23029 11.8325L9.24177 11.8325M5.21204 14.2435L5.22352 14.2435" stroke="rgb(44,44,44)" stroke-linecap="round" stroke-linejoin="round" stroke-width="2.000000" />
		<path id="Vector" d="M8.19672 18.1471C8.54114 16.8842 9.80402 16.1954 10.9521 16.5398" fill-rule="nonzero" stroke="rgb(44,44,44)" stroke-linecap="round" stroke-linejoin="round" stroke-width="2.000000" />
		<path id="Vector" d="M23.0072 4.94422C23.0072 15.2769 18.4149 18.7211 16.1188 18.7211C13.8226 18.7211 9.23035 15.2769 9.23035 4.94422C9.23035 2.64807 11.5265 1.5 16.1188 1.5C23.0072 1.5 23.0072 2.64807 23.0072 4.94422Z" fill="rgb(235.875,51.1063,66.9198)" fill-rule="nonzero" />
		<path id="Vector" d="M13.2626 19.2833C14.2352 19.9085 15.1873 20.2211 16.1188 20.2211C17.0503 20.2211 18.0024 19.9085 18.9749 19.2833C19.9876 18.6323 20.8867 17.7177 21.6721 16.5395C23.5622 13.7044 24.5072 9.83929 24.5072 4.94422C24.5072 4.10357 24.4564 3.48002 24.3548 3.07357C24.2469 2.64205 24.0721 2.25888 23.8303 1.92408C23.6046 1.61158 23.3206 1.34122 22.9782 1.11298C22.351 0.694816 21.4652 0.400976 20.321 0.231459C19.2794 0.0771528 17.8787 0 16.1188 0C11.9684 0 9.3581 0.907782 8.28799 2.72335C7.91623 3.35408 7.73035 4.09437 7.73035 4.94422C7.73035 9.83929 8.67538 13.7044 10.5654 16.5395C11.3509 17.7177 12.25 18.6323 13.2626 19.2833ZM16.1188 18.7211C18.4149 18.7211 23.0072 15.2769 23.0072 4.94422C23.0072 2.64807 23.0072 1.5 16.1188 1.5C12.445 1.5 10.2407 2.23477 9.50588 3.7043C9.32219 4.07168 9.23035 4.48499 9.23035 4.94422C9.23035 15.2769 13.8226 18.7211 16.1188 18.7211Z" fill="rgb(44,44,44)" fill-rule="evenodd" />
		<path id="Vector" d="M17.7258 10.5698C16.8073 11.4883 15.4296 11.4883 14.5112 10.5698" stroke="rgb(44,44,44)" stroke-linecap="round" stroke-linejoin="round" stroke-width="2.000000" />
		<path id="Vector" d="M13.8226 6.09229L13.8341 6.09229M18.4149 6.09229L18.4264 6.09229" stroke="rgb(44,44,44)" stroke-linecap="round" stroke-linejoin="round" stroke-width="2.000000" />
	</g>
</svg>
