<svg viewBox="0 0 39 32" xmlns="http://www.w3.org/2000/svg" xmlns:xlink="http://www.w3.org/1999/xlink" width="39.000000" height="32.000000" fill="none" customFrame="#000000">
	<path id="Icon Library" d="M3.3011 0C1.47743 0 0 1.4933 0 3.33327L0 28.6528C0 30.4927 1.48008 31.986 3.3011 31.986L4.62259 31.986C6.44626 31.986 7.92369 30.4927 7.92369 28.6528L7.92369 3.3306C7.92369 1.49064 6.44361 0 4.61995 0L3.3011 0ZM14.8651 0C13.0415 0 11.5614 1.4933 11.5614 3.33327L11.5614 28.6528C11.5614 30.4927 13.0415 31.986 14.8651 31.986L16.1866 31.986C17.0619 31.9846 17.9009 31.6328 18.5193 31.0079C19.1377 30.3829 19.4851 29.5359 19.4851 28.6528L19.4851 3.3306C19.4844 2.44749 19.1364 1.60075 18.5174 0.97629C17.8985 0.351834 17.0593 0.000706209 16.184 0L14.8651 0ZM30.9989 7.40519C30.6815 6.61069 30.0732 5.96997 29.3 5.61596C28.5269 5.26194 27.6484 5.22181 26.8468 5.50389L25.3085 6.04788C24.8876 6.19697 24.501 6.43052 24.172 6.73445C23.843 7.03838 23.5783 7.40639 23.3941 7.81629C23.2099 8.22619 23.1098 8.6695 23.1 9.11947C23.0901 9.56944 23.1707 10.0168 23.3369 10.4345L31.0993 29.9114C31.7574 31.5647 33.5837 32.3994 35.2515 31.8127L36.7897 31.2687C37.2109 31.1197 37.5978 30.886 37.9271 30.5819C38.2564 30.2778 38.5211 29.9095 38.7054 29.4993C38.8896 29.0891 38.9896 28.6454 38.9992 28.1952C39.0089 27.7449 38.9279 27.2973 38.7614 26.8795L30.9989 7.40519Z" fill="rgb(235.875,51.1063,66.9198)" fill-rule="nonzero" />
</svg>
