<svg viewBox="0 0 26 26" xmlns="http://www.w3.org/2000/svg" xmlns:xlink="http://www.w3.org/1999/xlink" width="26.000000" height="26.000000" fill="none" customFrame="#000000">
	<path id="Facebook Icon" d="M0 13.0726C0 19.5358 4.69408 24.9102 10.8333 26L10.8333 16.6108L7.58333 16.6108L7.58333 13L10.8333 13L10.8333 10.1108C10.8333 6.86075 12.9274 5.05592 15.8893 5.05592C16.8274 5.05592 17.8393 5.2 18.7774 5.34408L18.7774 8.66667L17.1167 8.66667C15.5274 8.66667 15.1667 9.46075 15.1667 10.4726L15.1667 13L18.6333 13L18.0559 16.6108L15.1667 16.6108L15.1667 26C21.3059 24.9102 26 19.5368 26 13.0726C26 5.8825 20.15 0 13 0C5.85 0 0 5.8825 0 13.0726Z" fill="rgb(255,255,255)" fill-rule="evenodd" />
</svg>
