<svg viewBox="0 0 22 22" xmlns="http://www.w3.org/2000/svg" xmlns:xlink="http://www.w3.org/1999/xlink" width="22.000000" height="22.000000" fill="none" customFrame="#000000">
	<path id="Icon Family" d="M17.5012 4.4C16.8996 4.4 16.3848 4.18477 15.9567 3.75431C15.5287 3.32384 15.3143 2.80574 15.3136 2.20001C15.3128 1.59427 15.5272 1.07654 15.9567 0.646807C16.3862 0.217074 16.9011 0.0014741 17.5012 7.43243e-06C18.1014 -0.00145923 18.6166 0.214141 19.0468 0.646807C19.477 1.07947 19.6911 1.59721 19.6889 2.20001C19.6867 2.80281 19.4727 3.32091 19.0468 3.75431C18.6209 4.18771 18.1057 4.40294 17.5012 4.4ZM16.4074 20.9L16.4074 13.2C16.4074 12.4667 16.2203 11.8067 15.8463 11.22C15.4722 10.6333 14.9938 10.175 14.4112 9.845L15.3683 7.0125C15.5141 6.55417 15.7832 6.1875 16.1755 5.9125C16.5678 5.6375 17.0097 5.5 17.5012 5.5C17.9927 5.5 18.435 5.6375 18.828 5.9125C19.2211 6.1875 19.4898 6.55417 19.6342 7.0125L21.9312 13.9425C22.0588 14.3092 22.0089 14.6439 21.7814 14.9468C21.5538 15.2497 21.2574 15.4007 20.8921 15.4L19.6889 15.4L19.6889 20.9C19.6889 21.2117 19.5839 21.4731 19.3738 21.6843C19.1638 21.8955 18.9042 22.0007 18.595 22L17.5012 22C17.1913 22 16.9317 21.8944 16.7224 21.6832C16.5131 21.472 16.4081 21.2109 16.4074 20.9ZM11.4852 10.45C11.0294 10.45 10.6422 10.2898 10.3235 9.9693C10.0049 9.64884 9.84517 9.25907 9.84444 8.8C9.84371 8.34094 10.0034 7.95154 10.3235 7.6318C10.6437 7.31207 11.0309 7.15147 11.4852 7.15C11.9395 7.14854 12.3271 7.30914 12.6479 7.6318C12.9688 7.95447 13.1281 8.34387 13.1259 8.8C13.1237 9.25614 12.9644 9.6459 12.6479 9.9693C12.3314 10.2927 11.9439 10.4529 11.4852 10.45ZM3.82839 4.4C3.22679 4.4 2.71196 4.18477 2.28391 3.75431C1.85586 3.32384 1.64147 2.80574 1.64074 2.20001C1.64001 1.59427 1.8544 1.07654 2.28391 0.646807C2.71342 0.217074 3.22825 0.0014741 3.82839 7.43243e-06C4.42854 -0.00145923 4.94373 0.214141 5.37397 0.646807C5.80421 1.07947 6.01823 1.59721 6.01604 2.20001C6.01386 2.80281 5.79983 3.32091 5.37397 3.75431C4.94811 4.18771 4.43291 4.40294 3.82839 4.4ZM1.64074 20.9L1.64074 14.3L1.09383 14.3C0.783909 14.3 0.524307 14.1944 0.315022 13.9832C0.105737 13.772 0.000729217 13.5109 0 13.2L0 7.7C0 7.095 0.21439 6.57727 0.64317 6.1468C1.07195 5.71634 1.58678 5.50074 2.18765 5.5L5.46913 5.5C6.07074 5.5 6.58593 5.7156 7.01471 6.1468C7.44349 6.578 7.65751 7.09574 7.65678 7.7L7.65678 13.2C7.65678 13.5117 7.55178 13.7731 7.34176 13.9843C7.13175 14.1955 6.87215 14.3007 6.56296 14.3L6.01604 14.3L6.01604 20.9C6.01604 21.2117 5.91104 21.4731 5.70102 21.6843C5.49101 21.8955 5.23141 22.0007 4.92222 22L2.73457 22C2.42465 22 2.16505 21.8944 1.95576 21.6832C1.74648 21.472 1.64147 21.2109 1.64074 20.9ZM9.84444 20.9L9.84444 17.6C9.53452 17.6 9.27492 17.4944 9.06563 17.2832C8.85635 17.072 8.75134 16.8109 8.75061 16.5L8.75061 13.2C8.75061 12.7417 8.91031 12.3523 9.2297 12.0318C9.5491 11.7113 9.93632 11.5507 10.3913 11.55L12.579 11.55C13.0348 11.55 13.4223 11.7106 13.7417 12.0318C14.0611 12.353 14.2205 12.7424 14.2197 13.2L14.2197 16.5C14.2197 16.8117 14.1147 17.0731 13.9047 17.2843C13.6947 17.4955 13.4351 17.6007 13.1259 17.6L13.1259 20.9C13.1259 21.2117 13.0209 21.4731 12.8109 21.6843C12.6009 21.8955 12.3413 22.0007 12.0321 22L10.9383 22C10.6283 22 10.3687 21.8944 10.1595 21.6832C9.95017 21.472 9.84517 21.2109 9.84444 20.9Z" fill="rgb(235.875,51.1063,66.9198)" fill-rule="nonzero" />
</svg>
