<svg viewBox="0 0 23.7969 23.7969" xmlns="http://www.w3.org/2000/svg" xmlns:xlink="http://www.w3.org/1999/xlink" width="23.796875" height="23.796875" fill="none" customFrame="#000000">
	<g id="Google Icon">
		<path id="Vector" d="M23.5655 9.56813L22.607 9.56813L22.607 9.51875L11.8984 9.51875L11.8984 14.2781L18.6228 14.2781C17.6418 17.0487 15.0057 19.0375 11.8984 19.0375C7.95589 19.0375 4.75938 15.841 4.75938 11.8984C4.75938 7.95589 7.95589 4.75938 11.8984 4.75938C13.7183 4.75938 15.374 5.44591 16.6346 6.56734L20.0001 3.20187C17.875 1.22137 15.0325 0 11.8984 0C5.32753 0 0 5.32753 0 11.8984C0 18.4693 5.32753 23.7969 11.8984 23.7969C18.4693 23.7969 23.7969 18.4693 23.7969 11.8984C23.7969 11.1006 23.7148 10.3219 23.5655 9.56813Z" fill="rgb(173.188,173.188,173.188)" fill-rule="nonzero" />
		<path id="Vector" d="M1.37195 6.36031L5.28118 9.22724C6.33895 6.60839 8.90069 4.75938 11.8985 4.75938C13.7184 4.75938 15.374 5.44591 16.6347 6.56734L20.0001 3.20187C17.8751 1.22137 15.0325 0 11.8985 0C7.32831 0 3.36494 2.58018 1.37195 6.36031Z" fill="rgb(173.188,173.188,173.188)" fill-rule="nonzero" />
		<path id="Vector" d="M11.8985 23.7967C14.9719 23.7967 17.7644 22.6205 19.8758 20.7078L16.1932 17.5916C14.9585 18.5307 13.4497 19.0385 11.8985 19.0373C8.80371 19.0373 6.17594 17.064 5.18599 14.3101L1.30591 17.2995C3.2751 21.1528 7.27417 23.7967 11.8985 23.7967Z" fill="rgb(173.188,173.188,173.188)" fill-rule="nonzero" />
		<path id="Vector" d="M23.5655 9.56842L22.607 9.56842L22.607 9.51904L11.8984 9.51904L11.8984 14.2784L18.6228 14.2784C18.1536 15.597 17.3083 16.7492 16.1914 17.5927L16.1932 17.5915L19.8757 20.7077C19.6152 20.9445 23.7969 17.8479 23.7969 11.8987C23.7969 11.1009 23.7148 10.3222 23.5655 9.56842Z" fill="rgb(173.188,173.188,173.188)" fill-rule="nonzero" />
	</g>
</svg>
