<svg viewBox="0 0 31 30" xmlns="http://www.w3.org/2000/svg" xmlns:xlink="http://www.w3.org/1999/xlink" width="31.000000" height="30.000000" fill="none" customFrame="#000000">
	<path id="Icon High Quality Streaming" d="M26.0211 10.9924L26.3677 10.1839C26.9772 8.75356 28.0933 7.60675 29.4958 6.96976L30.5653 6.4855C30.695 6.42499 30.805 6.32803 30.882 6.20612C30.9591 6.08421 31 5.94246 31 5.79767C31 5.65289 30.9591 5.51114 30.882 5.38923C30.805 5.26732 30.695 5.17036 30.5653 5.10985L29.555 4.65416C28.1172 3.99902 26.982 2.8098 26.3832 1.33148L26.0267 0.458664C25.9744 0.323462 25.883 0.207388 25.7647 0.125574C25.6463 0.0437594 25.5063 -3.1719e-16 25.3631 0C25.2198 -3.1719e-16 25.0798 0.0437594 24.9614 0.125574C24.8431 0.207388 24.7517 0.323462 24.6994 0.458664L24.3429 1.33005C23.7448 2.80865 22.61 3.99839 21.1725 4.65416L20.1608 5.11128C20.0315 5.17196 19.9219 5.2689 19.8452 5.39066C19.7684 5.51241 19.7276 5.65389 19.7276 5.79839C19.7276 5.94289 19.7684 6.08437 19.8452 6.20612C19.9219 6.32787 20.0315 6.42481 20.1608 6.4855L21.2317 6.96833C22.634 7.60596 23.7496 8.75327 24.3584 10.1839L24.705 10.9924C24.9587 11.5838 25.766 11.5838 26.0211 10.9924ZM25.3631 14.2865C26.3071 14.2865 27.2131 14.1294 28.0614 13.8408C28.1412 14.4551 28.1812 15.0798 28.1812 15.715C28.1824 17.9328 27.6738 20.1203 26.6957 22.104C25.7176 24.0877 24.2969 25.813 22.5463 27.143L25.3631 27.143L25.3631 30L14.0906 30C6.30835 30 0 23.6046 0 15.715C0 7.82543 6.30835 1.43004 14.0906 1.43004C15.3672 1.43004 16.6029 1.60146 17.7781 1.9243C17.1423 3.23124 16.8456 4.68095 16.9162 6.13645C16.9868 7.59195 17.4223 9.00517 18.1815 10.2426C18.9407 11.48 19.9986 12.5007 21.2552 13.2083C22.5118 13.9159 23.9256 14.287 25.3631 14.2865ZM14.0906 12.858C14.838 12.858 15.5548 12.557 16.0833 12.0212C16.6118 11.4854 16.9087 10.7588 16.9087 10.001C16.9087 9.24331 16.6118 8.51662 16.0833 7.98083C15.5548 7.44504 14.838 7.14403 14.0906 7.14403C13.3432 7.14403 12.6264 7.44504 12.0979 7.98083C11.5694 8.51662 11.2725 9.24331 11.2725 10.001C11.2725 10.7588 11.5694 11.4854 12.0979 12.0212C12.6264 12.557 13.3432 12.858 14.0906 12.858ZM8.45435 18.572C9.20176 18.572 9.91856 18.271 10.4471 17.7352C10.9756 17.1994 11.2725 16.4727 11.2725 15.715C11.2725 14.9573 10.9756 14.2306 10.4471 13.6948C9.91856 13.159 9.20176 12.858 8.45435 12.858C7.70694 12.858 6.99014 13.159 6.46164 13.6948C5.93314 14.2306 5.63623 14.9573 5.63623 15.715C5.63623 16.4727 5.93314 17.1994 6.46164 17.7352C6.99014 18.271 7.70694 18.572 8.45435 18.572ZM19.7268 18.572C20.4742 18.572 21.191 18.271 21.7195 17.7352C22.248 17.1994 22.5449 16.4727 22.5449 15.715C22.5449 14.9573 22.248 14.2306 21.7195 13.6948C21.191 13.159 20.4742 12.858 19.7268 12.858C18.9794 12.858 18.2626 13.159 17.7341 13.6948C17.2056 14.2306 16.9087 14.9573 16.9087 15.715C16.9087 16.4727 17.2056 17.1994 17.7341 17.7352C18.2626 18.271 18.9794 18.572 19.7268 18.572ZM14.0906 24.286C14.838 24.286 15.5548 23.985 16.0833 23.4492C16.6118 22.9134 16.9087 22.1867 16.9087 21.429C16.9087 20.6713 16.6118 19.9446 16.0833 19.4088C15.5548 18.873 14.838 18.572 14.0906 18.572C13.3432 18.572 12.6264 18.873 12.0979 19.4088C11.5694 19.9446 11.2725 20.6713 11.2725 21.429C11.2725 22.1867 11.5694 22.9134 12.0979 23.4492C12.6264 23.985 13.3432 24.286 14.0906 24.286Z" fill="rgb(235.875,51.1063,66.9198)" fill-rule="nonzero" />
</svg>
