<svg viewBox="0 0 18 19" xmlns="http://www.w3.org/2000/svg" xmlns:xlink="http://www.w3.org/1999/xlink" width="18.000000" height="19.000000" fill="none" customFrame="#000000">
	<path id="Icon Horror" d="M9 0C6.61389 0.00276576 4.32629 0.9645 2.63905 2.67422C0.951818 4.38394 0.00272941 6.70202 1.68738e-08 9.11992L1.68738e-08 18.2398C-3.01055e-05 18.3838 0.0402703 18.5247 0.116213 18.6464C0.192155 18.768 0.300617 18.8653 0.42898 18.9269C0.557343 18.9885 0.700329 19.0119 0.841304 18.9943C0.982279 18.9768 1.11545 18.9191 1.22531 18.8279L3.49969 16.9422L5.775 18.8279C5.90898 18.9389 6.07675 18.9996 6.24984 18.9996C6.42294 18.9996 6.5907 18.9389 6.72469 18.8279L9 16.9422L11.2753 18.8279C11.4093 18.9389 11.5771 18.9996 11.7502 18.9996C11.9233 18.9996 12.091 18.9389 12.225 18.8279L14.5003 16.9422L16.7747 18.8279C16.8846 18.9191 17.0177 18.9768 17.1587 18.9943C17.2997 19.0119 17.4427 18.9885 17.571 18.9269C17.6994 18.8653 17.8078 18.768 17.8838 18.6464C17.9597 18.5247 18 18.3838 18 18.2398L18 9.11992C17.9973 6.70202 17.0482 4.38394 15.3609 2.67422C13.6737 0.9645 11.3861 0.00276576 9 0ZM6.375 9.87992C6.1525 9.87992 5.93499 9.81306 5.74998 9.68779C5.56498 9.56253 5.42078 9.38449 5.33564 9.17618C5.25049 8.96787 5.22821 8.73866 5.27162 8.51752C5.31502 8.29639 5.42217 8.09326 5.5795 7.93383C5.73684 7.7744 5.93729 7.66583 6.15552 7.62184C6.37375 7.57785 6.59995 7.60043 6.80552 7.68671C7.01109 7.77299 7.18679 7.91911 7.3104 8.10658C7.43402 8.29405 7.5 8.51446 7.5 8.73993C7.5 9.04227 7.38147 9.33223 7.1705 9.54602C6.95952 9.75981 6.67337 9.87992 6.375 9.87992ZM11.625 9.87992C11.4025 9.87992 11.185 9.81306 11 9.68779C10.815 9.56253 10.6708 9.38449 10.5856 9.17618C10.5005 8.96787 10.4782 8.73866 10.5216 8.51752C10.565 8.29639 10.6722 8.09326 10.8295 7.93383C10.9868 7.7744 11.1873 7.66583 11.4055 7.62184C11.6238 7.57785 11.85 7.60043 12.0555 7.68671C12.2611 7.77299 12.4368 7.91911 12.5604 8.10658C12.684 8.29405 12.75 8.51446 12.75 8.73993C12.75 9.04227 12.6315 9.33223 12.4205 9.54602C12.2095 9.75981 11.9234 9.87992 11.625 9.87992Z" fill="rgb(235.875,51.1063,66.9198)" fill-rule="nonzero" />
</svg>
