<svg viewBox="0 0 23.1 23.1001" xmlns="http://www.w3.org/2000/svg" xmlns:xlink="http://www.w3.org/1999/xlink" width="23.099976" height="23.100098" fill="none" customFrame="#000000">
	<path id="LinkedIn Icon" d="M19.6823 19.6826L16.2596 19.6826L16.2596 14.3224C16.2596 13.0442 16.2368 11.3988 14.4795 11.3988C12.6968 11.3988 12.424 12.7915 12.424 14.2294L12.424 19.6822L9.00142 19.6822L9.00142 8.65958L12.2871 8.65958L12.2871 10.166L12.3331 10.166C12.662 9.6037 13.1371 9.14117 13.708 8.82761C14.2789 8.51405 14.9242 8.36121 15.5751 8.38536C19.0441 8.38536 19.6837 10.6672 19.6837 13.6357L19.6823 19.6826ZM5.13939 7.15294C4.04241 7.15312 3.15297 6.26395 3.15279 5.16697C3.15261 4.06999 4.04169 3.18055 5.13867 3.18037C6.23565 3.1801 7.12509 4.06927 7.12527 5.16625C7.12536 5.69304 6.91619 6.19829 6.54377 6.57087C6.17135 6.94344 5.66618 7.15282 5.13939 7.15294ZM6.85077 19.6827L3.42448 19.6827L3.42448 8.65958L6.85068 8.65958L6.85068 19.6826L6.85077 19.6827ZM21.3886 0.00168124L1.70462 0.00168124C0.774301 -0.00878595 0.0113695 0.73646 0 1.66678L0 21.4329C0.0110086 22.3637 0.77385 23.1096 1.70453 23.0999L21.3886 23.0999C22.3213 23.1114 23.0871 22.3655 23.1 21.4329L23.1 1.66524C23.0867 0.733121 22.3208 -0.0120344 21.3886 0.000147253" fill="rgb(173.188,173.188,173.188)" fill-rule="nonzero" />
</svg>
