<svg viewBox="0 0 22 22" xmlns="http://www.w3.org/2000/svg" xmlns:xlink="http://www.w3.org/1999/xlink" width="22.000000" height="22.000000" fill="none" customFrame="#000000">
	<g id="Icon Sci-Fi">
		<path id="Vector" d="M4 15L9 12M13 10L18 7M11 4L11 9M11 13L11 18M4 7L9 10M13 12L18 15M19.5 8L19.5 13.5M12.5 19.5L18 16.5M3.5 16.5L9.5 19.5M2.5 14L2.5 8M3.5 5.5L9.5 2.5M18.5 5.5L12.5 2.5" fill-rule="nonzero" stroke="rgb(235.875,51.1063,66.9198)" stroke-linecap="round" stroke-linejoin="round" stroke-width="2.000000" />
		<path id="Vector" d="M11 4C10.1716 4 9.5 3.32843 9.5 2.5C9.5 1.67157 10.1716 1 11 1C11.8284 1 12.5 1.67157 12.5 2.5C12.5 3.32843 11.8284 4 11 4Z" stroke="rgb(235.875,51.1063,66.9198)" stroke-linecap="round" stroke-linejoin="round" stroke-width="2.000000" />
		<path id="Vector" d="M11 21C10.1716 21 9.5 20.3284 9.5 19.5C9.5 18.6716 10.1716 18 11 18C11.8284 18 12.5 18.6716 12.5 19.5C12.5 20.3284 11.8284 21 11 21Z" stroke="rgb(235.875,51.1063,66.9198)" stroke-linecap="round" stroke-linejoin="round" stroke-width="2.000000" />
		<path id="Vector" d="M2.5 8C1.67157 8 1 7.32843 1 6.5C1 5.67157 1.67157 5 2.5 5C3.32843 5 4 5.67157 4 6.5C4 7.32843 3.32843 8 2.5 8Z" stroke="rgb(235.875,51.1063,66.9198)" stroke-linecap="round" stroke-linejoin="round" stroke-width="2.000000" />
		<path id="Vector" d="M19.5 8C18.6716 8 18 7.32843 18 6.5C18 5.67157 18.6716 5 19.5 5C20.3284 5 21 5.67157 21 6.5C21 7.32843 20.3284 8 19.5 8Z" stroke="rgb(235.875,51.1063,66.9198)" stroke-linecap="round" stroke-linejoin="round" stroke-width="2.000000" />
		<path id="Vector" d="M19.5 17C18.6716 17 18 16.3284 18 15.5C18 14.6716 18.6716 14 19.5 14C20.3284 14 21 14.6716 21 15.5C21 16.3284 20.3284 17 19.5 17Z" stroke="rgb(235.875,51.1063,66.9198)" stroke-linecap="round" stroke-linejoin="round" stroke-width="2.000000" />
		<path id="Vector" d="M2.5 17C1.67157 17 1 16.3284 1 15.5C1 14.6716 1.67157 14 2.5 14C3.32843 14 4 14.6716 4 15.5C4 16.3284 3.32843 17 2.5 17Z" stroke="rgb(235.875,51.1063,66.9198)" stroke-linecap="round" stroke-linejoin="round" stroke-width="2.000000" />
		<path id="Vector" d="M13 9.875L13 12.125L11 13.25L9 12.125L9 9.875L11 8.75L13 9.875Z" fill-rule="nonzero" stroke="rgb(235.875,51.1063,66.9198)" stroke-linecap="round" stroke-linejoin="round" stroke-width="2.000000" />
	</g>
</svg>
