<svg viewBox="0 0 11 6" xmlns="http://www.w3.org/2000/svg" xmlns:xlink="http://www.w3.org/1999/xlink" width="11.000000" height="6.000000" fill="none" customFrame="#000000">
	<path id="Icon Arrow" d="M1.46825 0.269362L5.74688 4.84892C5.82708 4.93407 5.89075 5.03537 5.93419 5.14698C5.97763 5.25859 6 5.37831 6 5.49922C6 5.62013 5.97763 5.73984 5.93419 5.85146C5.89075 5.96307 5.82708 6.06437 5.74688 6.14952L1.46825 10.7291C1.3887 10.8149 1.29406 10.8831 1.18978 10.9296C1.0855 10.9761 0.973653 11 0.860687 11C0.747721 11 0.635873 10.9761 0.531595 10.9296C0.427317 10.8831 0.332673 10.8149 0.253122 10.7291C0.172916 10.6439 0.109255 10.5426 0.0658114 10.431C0.0223674 10.3194 0 10.1997 0 10.0788C0 9.95787 0.0223674 9.83815 0.0658114 9.72654C0.109255 9.61493 0.172916 9.51363 0.253122 9.42848L3.93274 5.49922L0.253122 1.56996C0.0919859 1.39749 0.00146079 1.16357 0.00146079 0.91966C0.00146079 0.798888 0.0236848 0.679299 0.066865 0.567721C0.110045 0.456143 0.173336 0.35476 0.253122 0.269362C0.414258 0.0968925 0.632806 -8.13493e-16 0.860687 0C0.973522 -8.13493e-16 1.08525 0.023788 1.1895 0.0700052C1.29375 0.116222 1.38847 0.183964 1.46825 0.269362Z" fill="rgb(209.312,209.312,209.312)" fill-rule="evenodd" transform="matrix(-4.37114e-08,1,-1,-4.37114e-08,11,0)" />
</svg>
