<svg viewBox="0 0 22 22.0007" xmlns="http://www.w3.org/2000/svg" xmlns:xlink="http://www.w3.org/1999/xlink" width="22.000000" height="22.000732" fill="none" customFrame="#000000">
	<g id="Search Button">
		<path id="Icon Search" d="M9.78565 2.20699e-08C8.2251 0.000132971 6.68721 0.373457 5.30028 1.08883C3.91336 1.80419 2.71761 2.84086 1.81282 4.11234C0.90802 5.38382 0.320406 6.85324 0.0989992 8.398C-0.122407 9.94277 0.0288141 11.5181 0.540047 12.9925C1.05128 14.4669 1.9077 15.7977 3.03786 16.8739C4.16801 17.95 5.53913 18.7403 7.03682 19.1787C8.5345 19.6172 10.1153 19.6911 11.6474 19.3944C13.1795 19.0977 14.6184 18.4388 15.8441 17.4729L20.0488 21.6776C20.2659 21.8874 20.5568 22.0034 20.8587 22.0008C21.1605 21.9982 21.4493 21.8771 21.6628 21.6636C21.8762 21.4501 21.9973 21.1614 22 20.8595C22.0026 20.5576 21.8865 20.2668 21.6768 20.0496L17.4721 15.8449C18.6096 14.4018 19.3179 12.6676 19.5158 10.8408C19.7138 9.01398 19.3934 7.16833 18.5914 5.51508C17.7894 3.86182 16.5382 2.46776 14.9809 1.49242C13.4236 0.517079 11.6232 -0.00012336 9.78565 2.20699e-08ZM2.30187 9.78648C2.30187 7.80166 3.09034 5.89813 4.49382 4.49465C5.8973 3.09117 7.80083 2.3027 9.78565 2.3027C11.7705 2.3027 13.674 3.09117 15.0775 4.49465C16.481 5.89813 17.2694 7.80166 17.2694 9.78648C17.2694 11.7713 16.481 13.6748 15.0775 15.0783C13.674 16.4818 11.7705 17.2703 9.78565 17.2703C7.80083 17.2703 5.8973 16.4818 4.49382 15.0783C3.09034 13.6748 2.30187 11.7713 2.30187 9.78648Z" fill="rgb(255,255,255)" fill-rule="evenodd" />
	</g>
</svg>
