<svg viewBox="0 0 17 16" xmlns="http://www.w3.org/2000/svg" xmlns:xlink="http://www.w3.org/1999/xlink" width="17.000000" height="16.000000" fill="none" customFrame="#000000">
	<path id="Icon Star" d="M5.59888 4.83041L0.662618 5.53539L0.575189 5.55292C0.442838 5.58753 0.322183 5.65612 0.225544 5.75169C0.128906 5.84726 0.0597471 5.96637 0.0251304 6.09688C-0.00948639 6.22739 -0.00832083 6.36461 0.028508 6.49452C0.0653367 6.62444 0.136509 6.7424 0.234757 6.83636L3.81084 10.2652L2.9675 15.1086L2.95744 15.1925C2.94934 15.3273 2.97776 15.4618 3.0398 15.5823C3.10184 15.7028 3.19526 15.8048 3.31051 15.878C3.42575 15.9512 3.55868 15.9929 3.69567 15.9989C3.83266 16.0048 3.9688 15.9748 4.09015 15.9119L8.50493 13.6255L12.9097 15.9119L12.987 15.947C13.1147 15.9965 13.2535 16.0117 13.3892 15.991C13.5248 15.9703 13.6524 15.9144 13.7589 15.829C13.8653 15.7437 13.9469 15.632 13.995 15.5054C14.0432 15.3788 14.0564 15.2419 14.0331 15.1086L13.189 10.2652L16.7666 6.8356L16.8269 6.77082C16.9132 6.66623 16.9697 6.541 16.9908 6.40789C17.0118 6.27477 16.9967 6.13853 16.9469 6.01305C16.8972 5.88756 16.8145 5.77732 16.7074 5.69355C16.6003 5.60977 16.4725 5.55546 16.3372 5.53615L11.4009 4.83041L9.19431 0.42525C9.13046 0.297618 9.03161 0.190142 8.90895 0.114987C8.7863 0.039832 8.64474 1.69229e-16 8.50029 0C8.35584 1.69229e-16 8.21428 0.039832 8.09162 0.114987C7.96897 0.190142 7.87012 0.297618 7.80627 0.42525L5.59888 4.83041Z" fill="rgb(252,190,47)" fill-rule="nonzero" />
</svg>
