<svg viewBox="0 0 24.0625 20.1201" xmlns="http://www.w3.org/2000/svg" xmlns:xlink="http://www.w3.org/1999/xlink" width="24.062500" height="20.120117" fill="none" customFrame="#000000">
	<path id="Twitter Icon" d="M24.0625 2.38154C23.1771 2.7855 22.2257 3.05852 21.2271 3.18134C22.2464 2.55272 23.0291 1.55728 23.3977 0.371221C22.4286 0.962882 21.3684 1.37974 20.2629 1.6038C19.3623 0.616672 18.0794 -0.000244141 16.6594 -0.000244141C13.933 -0.000244141 11.7226 2.274 11.7226 5.07899C11.7226 5.47715 11.7663 5.86477 11.8504 6.23662C7.74756 6.02472 4.10999 4.0026 1.67507 0.929531C1.25022 1.67971 1.00677 2.55233 1.00677 3.48308C1.00677 5.24533 1.87838 6.79996 3.20294 7.71087C2.41899 7.68561 1.65227 7.46775 0.966824 7.07548C0.966542 7.09676 0.966542 7.11804 0.966542 7.13941C0.966542 9.6004 2.66821 11.6534 4.92651 12.12C4.19955 12.3234 3.43702 12.3532 2.69716 12.207C3.32532 14.225 5.14853 15.6935 7.3087 15.7346C5.61916 17.0968 3.49047 17.9089 1.17765 17.9089C0.779117 17.9089 0.386222 17.8848 0 17.8379C2.18471 19.2791 4.7796 20.12 7.56747 20.12C16.648 20.12 21.6134 12.3802 21.6134 5.66806C21.6134 5.44775 21.6087 5.2287 21.5991 5.01091C22.5656 4.29204 23.3998 3.40166 24.0625 2.38154Z" fill="rgb(173.188,173.188,173.188)" fill-rule="nonzero" />
</svg>
